<?xml version="1.0" encoding="UTF-8"?>
<svg width="13px" height="12px" viewBox="0 0 13 12" version="1.1" xmlns="http://www.w3.org/2000/svg" xmlns:xlink="http://www.w3.org/1999/xlink">
    <!-- Generator: Sketch 63.1 (92452) - https://sketch.com -->
    <title>091B844D-C36B-47AD-AD49-51F8FA8C0A0B</title>
    <desc>Created with Sketch.</desc>
    <g id="Page-1" stroke="none" stroke-width="1" fill="none" fill-rule="evenodd">
        <g id="Home" transform="translate(-107.000000, -743.000000)" fill="#4CD6B7" fill-rule="nonzero">
            <g id="Group-4" transform="translate(88.000000, 647.000000)">
                <g id="arrow_icon" transform="translate(7.000000, 83.000000)">
                    <path d="M17.912812,13.2820891 C18.2889308,12.9059703 18.8987399,12.9059703 19.2748588,13.2820891 L19.2748588,13.2820891 L24.4114589,18.4186892 C24.7875777,18.7948081 24.7875777,19.4046172 24.4114589,19.780736 L24.4114589,19.780736 L19.2748588,24.9173362 C18.8987399,25.293455 18.2889308,25.293455 17.912812,24.9173362 C17.5366931,24.5412173 17.5366931,23.9314082 17.912812,23.5552894 L17.912812,23.5552894 L21.342,20.125 L13.5428452,20.125087 C13.2680239,20.125087 13.0409009,19.7620271 13.0049555,19.2909815 L13,19.1600288 C13,18.6270419 13.2430401,18.1949706 13.5428452,18.1949706 L13.5428452,18.1949706 L21.463,18.194 L17.912812,14.6441359 C17.5656253,14.2969493 17.5389187,13.750642 17.832692,13.3728214 Z" id="Shape" transform="translate(18.846774, 19.099713) rotate(-90.000000) translate(-18.846774, -19.099713) "></path>
                </g>
            </g>
        </g>
    </g>
</svg>