<?xml version="1.0" encoding="UTF-8"?>
<svg width="13px" height="12px" viewBox="0 0 13 12" version="1.1" xmlns="http://www.w3.org/2000/svg" xmlns:xlink="http://www.w3.org/1999/xlink">
    <!-- Generator: Sketch 63.1 (92452) - https://sketch.com -->
    <title>Shape</title>
    <desc>Created with Sketch.</desc>
    <g id="Page-1" stroke="none" stroke-width="1" fill="none" fill-rule="evenodd">
        <g id="eFund" transform="translate(-105.000000, -226.000000)" fill="#D04F51" fill-rule="nonzero">
            <path d="M110.912812,226.282089 C111.288931,225.90597 111.89874,225.90597 112.274859,226.282089 L112.274859,226.282089 L117.411459,231.418689 C117.787578,231.794808 117.787578,232.404617 117.411459,232.780736 L117.411459,232.780736 L112.274859,237.917336 C111.89874,238.293455 111.288931,238.293455 110.912812,237.917336 C110.536693,237.541217 110.536693,236.931408 110.912812,236.555289 L110.912812,236.555289 L114.342,233.125 L106.542845,233.125087 C106.268024,233.125087 106.040901,232.762027 106.004956,232.290981 L106,232.160029 C106,231.627042 106.24304,231.194971 106.542845,231.194971 L106.542845,231.194971 L114.463,231.194 L110.912812,227.644136 C110.565625,227.296949 110.538919,226.750642 110.832692,226.372821 Z" id="Shape" transform="translate(111.846774, 232.099713) scale(1, -1) rotate(-90.000000) translate(-111.846774, -232.099713) "></path>
        </g>
    </g>
</svg>