<?xml version="1.0" encoding="UTF-8"?>
<svg width="20px" height="10px" viewBox="0 0 20 10" version="1.1" xmlns="http://www.w3.org/2000/svg" xmlns:xlink="http://www.w3.org/1999/xlink">
    <!-- Generator: Sketch 63.1 (92452) - https://sketch.com -->
    <title>C801EC9F-80AC-44BF-900F-4C92E306A0A4</title>
    <desc>Created with Sketch.</desc>
    <g id="Page-1" stroke="none" stroke-width="1" fill="none" fill-rule="evenodd">
        <g id="eFund" transform="translate(-1084.000000, -307.000000)" fill="#868686">
            <g id="Group-3" transform="translate(508.000000, 307.000000)">
                <path d="M578.744346,0.243747461 C579.070176,-0.0812491537 579.596838,-0.0812491537 579.922667,0.243747461 L582.422641,2.74372142 C582.748471,3.06871803 582.748471,3.60204581 582.422641,3.92704243 C582.096811,4.25203904 581.57015,4.25203904 581.24432,3.92704243 L580.166832,2.84372038 L580.166832,9.16865449 C580.166832,9.62698305 579.793502,10.0019791 579.333507,10.0019791 C578.873512,10.0019791 578.500182,9.62698305 578.500182,9.16865449 L578.500182,2.84372038 L577.422694,3.92704243 C577.096864,4.25203904 576.570202,4.25203904 576.244372,3.92704243 C575.918543,3.60204581 575.918543,3.06871803 576.244372,2.74372142 L578.744346,0.243747461 Z M595.166675,1.66873262 L585.16678,1.66873262 C584.706784,1.66873262 584.333455,1.29373652 584.333455,0.835407965 C584.333455,0.377079405 584.706784,0.00208331163 585.16678,0.00208331163 L595.166675,0.00208331163 C595.626671,0.00208331163 596,0.377079405 596,0.835407965 C596,1.29373652 595.626671,1.66873262 595.166675,1.66873262 Z M584.333455,5.00203123 C584.333455,4.54370267 584.706784,4.16870658 585.16678,4.16870658 L591.833377,4.16870658 C592.293372,4.16870658 592.666701,4.54370267 592.666701,5.00203123 C592.666701,5.46035979 592.293372,5.83535588 591.833377,5.83535588 L585.16678,5.83535588 C584.706784,5.83535588 584.333455,5.46035979 584.333455,5.00203123 Z M584.333455,9.16865449 C584.333455,8.71032593 584.706784,8.33532984 585.16678,8.33532984 L591.833377,8.33532984 C592.293372,8.33532984 592.666701,8.71032593 592.666701,9.16865449 C592.666701,9.62698305 592.293372,10.0019791 591.833377,10.0019791 L585.16678,10.0019791 C584.706784,10.0019791 584.333455,9.62698305 584.333455,9.16865449 L584.333455,9.16865449 Z" id="Fill-919"></path>
            </g>
        </g>
    </g>
</svg>