<?xml version="1.0" encoding="UTF-8"?>
<svg width="14px" height="18px" viewBox="0 0 14 18" version="1.1" xmlns="http://www.w3.org/2000/svg" xmlns:xlink="http://www.w3.org/1999/xlink">
    <!-- Generator: Sketch 63.1 (92452) - https://sketch.com -->
    <title>6A9B7C89-FE9B-4B60-97F5-653FA3DD23CE</title>
    <desc>Created with Sketch.</desc>
    <g id="Page-1" stroke="none" stroke-width="1" fill="none" fill-rule="evenodd">
        <g id="eFund" transform="translate(-1292.000000, -195.000000)" fill="#868686">
            <g id="Group-8" transform="translate(1126.000000, 185.000000)">
                <path d="M172.75,11.5 C171.09325,11.5 169.75,12.84325 169.75,14.5 L169.75,17.5 L175.75,17.5 L175.75,14.5 C175.75,12.84325 174.40675,11.5 172.75,11.5 Z M177.25,17.5 L177.25,14.5 C177.25,12.01525 175.23475,10 172.75,10 C170.26525,10 168.25,12.01525 168.25,14.5 L168.25,17.5 C167.00725,17.5 166,18.50725 166,19.75 L166,25.75 C166,26.99275 167.00725,28 168.25,28 L177.25,28 C178.49275,28 179.5,26.99275 179.5,25.75 L179.5,19.75 C179.5,18.50725 178.49275,17.5 177.25,17.5 Z M168.25,19 C167.836,19 167.5,19.336 167.5,19.75 L167.5,25.75 C167.5,26.164 167.836,26.5 168.25,26.5 L177.25,26.5 C177.664,26.5 178,26.164 178,25.75 L178,19.75 C178,19.336 177.664,19 177.25,19 L168.25,19 Z" id="lock_icon"></path>
            </g>
        </g>
    </g>
</svg>