<?xml version="1.0" encoding="UTF-8"?>
<svg width="18px" height="18px" viewBox="0 0 18 18" version="1.1" xmlns="http://www.w3.org/2000/svg" xmlns:xlink="http://www.w3.org/1999/xlink">
    <!-- Generator: Sketch 63.1 (92452) - https://sketch.com -->
    <title>42F2E6E7-F598-4EFA-AB1D-1329BF6D6ECA</title>
    <desc>Created with Sketch.</desc>
    <g id="Page-1" stroke="none" stroke-width="1" fill="none" fill-rule="evenodd">
        <g id="eFund" transform="translate(-1061.000000, -27.000000)" fill="#FFFFFF" fill-rule="nonzero">
            <g id="search" transform="translate(471.000000, 11.000000)">
                <path d="M600.945946,16 C604.841792,16 608,19.1582076 608,23.0540541 C608,26.9499005 604.841792,30.1081081 600.945946,30.1081081 C599.260864,30.1081081 597.713783,29.5172555 596.500576,28.5314234 L591.245727,33.7862671 C590.960749,34.0712443 590.49871,34.0712443 590.213733,33.7862671 C589.928756,33.5012899 589.928756,33.0392506 590.213733,32.7542734 L590.213733,32.7542734 L595.468577,27.4994243 C594.482745,26.2862175 593.891892,24.7391363 593.891892,23.0540541 C593.891892,19.1582076 597.050099,16 600.945946,16 Z M600.945946,17.4594595 C597.856137,17.4594595 595.351351,19.9642448 595.351351,23.0540541 C595.351351,26.1438633 597.856137,28.6486486 600.945946,28.6486486 C604.035755,28.6486486 606.540541,26.1438633 606.540541,23.0540541 C606.540541,19.9642448 604.035755,17.4594595 600.945946,17.4594595 Z" id="search_icon" transform="translate(599.000000, 25.000000) scale(-1, 1) translate(-599.000000, -25.000000) "></path>
            </g>
        </g>
    </g>
</svg>